# xmcd
#
# Track frame offsets: 
#        150
#        12159
#        20198
#        33498
#        47773
#        58910
#        70645
#        81611
#        91890
#        105718
#        116642
#        132361
#        141679
#        153338
#        162503
#        171128
#        180450
#        193379
#        206803
#        220963
#        229943
#        239117
#        248768
#        260743
#        271995
#        285752
#        297824
#        307740
#        319040
#        329927
#        338865
#        350891
#        360718
#        372819
#        382013
#        394218
#
# Disc length: 5372 seconds
#
# Revision: 2
# Processed by: cddbd v1.5.2PL0 Copyright (c) Steve Scherf et al.
# Submitted via: ExactAudioCopyFreeDBPlugin 1.0
#
DISCID=4d14fa24
DTITLE=Various Artist - The Sun Country Box:  Country Music Recorded 
DTITLE=by Sam Phillips, 1950-1959 [Bear Family]
DYEAR=2013
DGENRE=Country
TTITLE0=The Miller Sisters - You Can Tell Me
TTITLE1=The Miller Sisters - Woody
TTITLE2=The Miller Sisters - Finders Keepers
TTITLE3=The Miller Sisters - My Isle of Golden Dreams
TTITLE4=The Miller Sisters - Ten Cats Down
TTITLE5=The Miller Sisters - It Only Hurts for a Little While
TTITLE6=The Miller Sisters - Got You on My Mind
TTITLE7=The Miller Sisters - Chains of Love
TTITLE8=The Miller Sisters and Cast King - I Can't Find Time to Pray
TTITLE9=Cast King - When You Stop Loving Me
TTITLE10=Cast King - Like a Wees in a Garden
TTITLE11=Cast King - Satisfied with Me
TTITLE12=Cast King - Please Believe Me
TTITLE13=Cast King - Round and Round
TTITLE14=Cast King - Destiny
TTITLE15=Cast King - Baby Doll
TTITLE16=Warren Smith - Rock 'n' Roll Ruby
TTITLE17=Warren Smith - I'd Rather Be Safe Than Sorry
TTITLE18=Warren Smith - Black Jack David
TTITLE19=Warren Smith - Ubangi Stomp
TTITLE20=Warren Smith - Tonight Will Be the Last Night
TTITLE21=Warren Smith - Tell Me Who
TTITLE22=Warren Smith - I Couldn't Take the Chance
TTITLE23=Warren Smith - The Darkest Cloud
TTITLE24=Warren Smith - So Long I'm Gone (1)
TTITLE25=Warren Smith - So Long I'm Gone (2)
TTITLE26=Warren Smith - So Long I'm Gone (3)
TTITLE27=Warren Smith - Who Took My Baby
TTITLE28=Warren Smith - Miss Froggie
TTITLE29=Warren Smith - Stop the World
TTITLE30=Warren Smith - Red Cadillac and a Black Moustache
TTITLE31=Warren Smith - Got Love If You Want It
TTITLE32=Warren Smith - I Fell in Love
TTITLE33=Warren Smith - Hank Snow Medley
TTITLE34=Warren Smith - Do I Love You
TTITLE35=Warren Smith - I Like Your Kinda Love
EXTD=
EXTT0=
EXTT1=
EXTT2=
EXTT3=
EXTT4=
EXTT5=
EXTT6=
EXTT7=
EXTT8=
EXTT9=
EXTT10=
EXTT11=
EXTT12=
EXTT13=
EXTT14=
EXTT15=
EXTT16=
EXTT17=
EXTT18=
EXTT19=
EXTT20=
EXTT21=
EXTT22=
EXTT23=
EXTT24=
EXTT25=
EXTT26=
EXTT27=
EXTT28=
EXTT29=
EXTT30=
EXTT31=
EXTT32=
EXTT33=
EXTT34=
EXTT35=
PLAYORDER=
